<?xml version="1.0" encoding="utf-8"?>
<svg width="16" height="16" fill="currentColor" class="bi bi-envelope-check" viewBox="0 0 16 16" xmlns="http://www.w3.org/2000/svg">
  <g style="" transform="matrix(1.107639, 0, 0, 1.080081, -1.435268, -1.105717)">
    <ellipse style="stroke: rgb(0, 0, 0); fill: rgb(0, 0, 0); stroke-miterlimit: 1; stroke-linejoin: round;" cx="11.862" cy="11.396" rx="1.408" ry="1.424"/>
    <path d="M 14.189 11.033 C 14.189 13.074 12.005 14.348 10.257 13.329 C 9.446 12.856 8.946 11.981 8.946 11.033 C 8.946 8.994 11.131 7.719 12.878 8.739 C 13.691 9.213 14.189 10.088 14.189 11.033 Z M 12.696 9.762 C 12.519 9.655 12.289 9.712 12.183 9.893 L 11.305 11.369 L 10.896 10.956 C 10.693 10.749 10.345 10.843 10.27 11.124 C 10.234 11.256 10.272 11.396 10.367 11.491 L 10.945 12.075 C 11.205 12.339 11.637 12.284 11.826 11.967 L 12.825 10.282 C 12.932 10.103 12.873 9.871 12.696 9.762 Z" style="fill: rgb(255, 193, 7); stroke-miterlimit: 1; stroke-linejoin: round;"/>
  </g>
  <path d="M 3.217 2.322 C 2.389 2.322 1.719 3 1.719 3.836 L 1.719 9.902 C 1.723 10.735 2.392 11.408 3.217 11.408 L 7.337 11.408 C 7.625 11.408 7.806 11.091 7.661 10.84 C 7.595 10.723 7.47 10.651 7.337 10.651 L 3.217 10.651 C 2.878 10.651 2.582 10.42 2.493 10.089 L 6.718 7.461 L 7.713 8.063 L 12.955 4.883 L 12.955 7.244 C 12.955 7.535 13.268 7.717 13.517 7.571 C 13.634 7.503 13.704 7.378 13.704 7.244 L 13.704 3.836 C 13.704 3 13.034 2.322 12.207 2.322 L 3.217 2.322 Z M 5.994 7.021 L 2.468 9.216 L 2.468 4.883 L 5.994 7.021 Z M 2.468 4.001 L 2.468 3.836 C 2.468 3.418 2.804 3.08 3.217 3.08 L 12.207 3.08 C 12.619 3.08 12.955 3.418 12.955 3.836 L 12.955 4.001 L 7.713 7.181 L 2.468 4.001 Z" style="stroke: rgb(0, 103, 185); paint-order: fill; stroke-miterlimit: 1; stroke-linejoin: round;"/>
</svg>