<?xml version="1.0" encoding="utf-8"?>
<svg width="16" height="16" fill="currentColor" class="bi bi-view-list" viewBox="0 0 16 16" xmlns="http://www.w3.org/2000/svg" xmlns:bx="https://boxy-svg.com">
  <defs>
    <bx:guide x="1.014" y="3.387" angle="0"/>
    <bx:guide x="1.993" y="2.001" angle="90"/>
    <bx:guide x="3.642" y="6.008" angle="90"/>
    <bx:guide x="3.999" y="10.014" angle="90"/>
  </defs>
  <path d="M 1 2 C 1 1.724 1.224 1.5 1.5 1.5 L 14.5 1.5 C 14.885 1.5 15.125 1.917 14.933 2.25 C 14.844 2.405 14.679 2.5 14.5 2.5 L 1.5 2.5 C 1.224 2.5 1 2.276 1 2 Z M 1 14 C 1 13.724 1.224 13.5 1.5 13.5 L 14.5 13.5 C 14.885 13.5 15.125 13.917 14.933 14.25 C 14.844 14.405 14.679 14.5 14.5 14.5 L 1.5 14.5 C 1.224 14.5 1 14.276 1 14 Z"/>
  <path d="M 1.014 -5.996 C 1.014 -6.272 1.238 -6.496 1.514 -6.496 L 14.514 -6.496 C 14.899 -6.496 15.139 -6.079 14.947 -5.746 C 14.858 -5.591 14.693 -5.496 14.514 -5.496 L 1.514 -5.496 C 1.238 -5.496 1.014 -5.72 1.014 -5.996 Z M 1.014 6.004 C 1.014 5.728 1.238 5.504 1.514 5.504 L 14.514 5.504 C 14.899 5.504 15.139 5.921 14.947 6.254 C 14.858 6.409 14.693 6.504 14.514 6.504 L 1.514 6.504 C 1.238 6.504 1.014 6.28 1.014 6.004 Z"/>
  <path d="M 1 -1.999 C 1 -2.275 1.224 -2.499 1.5 -2.499 L 14.5 -2.499 C 14.885 -2.499 15.125 -2.082 14.933 -1.749 C 14.844 -1.594 14.679 -1.499 14.5 -1.499 L 1.5 -1.499 C 1.224 -1.499 1 -1.723 1 -1.999 Z M 1 10.001 C 1 9.725 1.224 9.501 1.5 9.501 L 14.5 9.501 C 14.885 9.501 15.125 9.918 14.933 10.251 C 14.844 10.406 14.679 10.501 14.5 10.501 L 1.5 10.501 C 1.224 10.501 1 10.277 1 10.001 Z"/>
</svg>